<svg xmlns="http://www.w3.org/2000/svg" viewBox="0 0 1277.89 66"><defs><style>.cls-1{fill:#630;}.cls-2{fill:#f03;}.cls-3{fill:#f90;}.cls-4{fill:#0c0;}</style></defs><title>COMPANY</title><g id="レイヤー_2" data-name="レイヤー 2"><g id="レイヤー_1-2" data-name="レイヤー 1"><path class="cls-1" d="M408.4,33.16l18.92.49q-1.87,14.69-10.17,22.7t-21.66,8q-13.58,0-22.72-9.1a30.6,30.6,0,0,1-9.15-22.59,30.91,30.91,0,0,1,9.33-22.83,31.36,31.36,0,0,1,23-9.26q13.44,0,22.43,9.08,6.23,6.28,8.81,17.49l-19.36,1.29q-3.25-10-12.33-10a12.53,12.53,0,0,0-9.55,4,14.3,14.3,0,0,0-3.76,10.19,13.75,13.75,0,0,0,3.69,9.86,13.52,13.52,0,0,0,18.5.47Q407.77,39.57,408.4,33.16Z"/><path class="cls-1" d="M487.45.57A30,30,0,0,1,509.6,10a30.93,30.93,0,0,1,9.24,22.48,30.78,30.78,0,0,1-9.3,22.61,32,32,0,0,1-45.18,0A30.75,30.75,0,0,1,455,32.44a30.51,30.51,0,0,1,9.41-22.61A31.61,31.61,0,0,1,487.45.57Zm-.53,17.89a12.64,12.64,0,0,0-9.48,4.09,13.78,13.78,0,0,0-3.92,9.88,13.74,13.74,0,0,0,3.94,9.88,13,13,0,0,0,19,0,13.8,13.8,0,0,0,3.89-9.9,13.8,13.8,0,0,0-3.89-9.9A12.65,12.65,0,0,0,486.92,18.47Z"/><path class="cls-1" d="M548.88,62.85V19q0-8.15,4.94-13.31A17,17,0,0,1,566.64.57Q576,.57,581,9.17a20.07,20.07,0,0,1,6.59-6.61,17.46,17.46,0,0,1,8.68-2q8.19,0,12.55,5.16T613.2,20.6V62.85H595.13V23.32a10.44,10.44,0,0,0-.47-3.89,1.89,1.89,0,0,0-1.89-1q-2.67,0-2.67,4.54V62.85H572V23.32a10,10,0,0,0-.49-3.87,1.93,1.93,0,0,0-1.91-1q-2.67,0-2.67,4.85V62.85Z"/><path class="cls-1" d="M666.7,41.84V25.9q5.47,0,5.47-4.18,0-3.83-4.18-3.83t-4.23,5.25v39.7H645.69V25a32.87,32.87,0,0,1,1.18-9.64,19.41,19.41,0,0,1,4-7,22.63,22.63,0,0,1,8-5.7A24.64,24.64,0,0,1,668.84.57a21.25,21.25,0,0,1,15.56,6.23,20.86,20.86,0,0,1,6.3,15.45q0,8.95-5.65,14.51-5.17,5.12-15.58,5.12Z"/><path class="cls-1" d="M743,32.36v16h-5.21V62.85H719.71V24.21q0-11.22,6.12-17.43T743,.57q10.68,0,15.8,5.63T764,23.59V62.85H745.89V24.79q0-3.56-.85-4.94a3.26,3.26,0,0,0-3-1.38q-4.23,0-4.23,6.32v7.57Z"/><path class="cls-1" d="M796.45,62.85V23.41q0-10.37,6.21-16.6T819.2.57q10.28,0,15.74,6.05T840.38,24V62.85H822.31V24q0-5.56-4-5.56T814.52,24V62.85Z"/><path class="cls-1" d="M917,2.09l-17.18,27V62.85H881.73V29.11l-17.32-27h18.34l7.83,12.51L899,2.09Z"/><circle class="cls-2" cx="31" cy="32.5" r="31"/><rect class="cls-3" x="121.42" y="0.5" width="63" height="63"/><polygon class="cls-4" points="280.5 0 243.84 63.5 317.16 63.5 280.5 0"/><circle class="cls-2" cx="1246.89" cy="35" r="31"/><rect class="cls-3" x="1093.77" y="2.5" width="63" height="63" transform="translate(2250.55 68.01) rotate(-180)"/><polygon class="cls-4" points="997.69 2 1034.35 65.5 961.03 65.5 997.69 2"/></g></g></svg>