<svg xmlns="http://www.w3.org/2000/svg" viewBox="0 0 292.33 40.58"><defs><style>.cls-1{fill:#fff;}</style></defs><title>COMPANY_hedder</title><g id="レイヤー_2" data-name="レイヤー 2"><g id="レイヤー_1-2" data-name="レイヤー 1"><path class="cls-1" d="M28.49,20.73l12,.31q-1.2,9.34-6.47,14.45T20.28,40.58A19.68,19.68,0,0,1,5.82,34.79,19.46,19.46,0,0,1,0,20.42,19.69,19.69,0,0,1,5.93,5.89,20,20,0,0,1,20.56,0,19.27,19.27,0,0,1,34.83,5.78q4,4,5.61,11.13l-12.32.82q-2.07-6.35-7.84-6.35a8,8,0,0,0-6.08,2.55,9.12,9.12,0,0,0-2.39,6.49,8.73,8.73,0,0,0,2.35,6.27,7.86,7.86,0,0,0,5.95,2.48A7.87,7.87,0,0,0,25.93,27,9.93,9.93,0,0,0,28.49,20.73Z"/><path class="cls-1" d="M69.66,0A19,19,0,0,1,83.75,6a19.66,19.66,0,0,1,5.88,14.3,19.55,19.55,0,0,1-5.92,14.38,20.39,20.39,0,0,1-28.75,0A19.6,19.6,0,0,1,49,20.28,19.39,19.39,0,0,1,55,5.89,20.09,20.09,0,0,1,69.66,0Zm-.34,11.38a8,8,0,0,0-6,2.61,8.77,8.77,0,0,0-2.49,6.29,8.72,8.72,0,0,0,2.5,6.28,8.3,8.3,0,0,0,12.07,0,8.8,8.8,0,0,0,2.48-6.3A8.76,8.76,0,0,0,75.37,14,8,8,0,0,0,69.32,11.38Z"/><path class="cls-1" d="M98.73,39.62V11.75a11.75,11.75,0,0,1,3.14-8.46A10.8,10.8,0,0,1,110,0c4,0,7,1.82,9.15,5.47a12.71,12.71,0,0,1,4.19-4.21A11.1,11.1,0,0,1,128.89,0q5.22,0,8,3.29t2.77,9.45V39.62H128.16V14.47a6.64,6.64,0,0,0-.3-2.48,1.22,1.22,0,0,0-1.21-.61c-1.13,0-1.69,1-1.69,2.89V39.62h-11.5V14.47a6.48,6.48,0,0,0-.31-2.46,1.24,1.24,0,0,0-1.22-.63c-1.13,0-1.7,1-1.7,3.09V39.62Z"/><path class="cls-1" d="M162.76,26.25V16.11c2.32,0,3.48-.88,3.48-2.66,0-1.62-.89-2.43-2.66-2.43s-2.69,1.11-2.69,3.34V39.62h-11.5V15.55a20.89,20.89,0,0,1,.75-6.13A12.2,12.2,0,0,1,152.7,5a14.43,14.43,0,0,1,5.1-3.63A15.61,15.61,0,0,1,164.11,0,13.53,13.53,0,0,1,174,4a13.29,13.29,0,0,1,4,9.83,12.36,12.36,0,0,1-3.6,9.23q-3.28,3.27-9.91,3.26Z"/><path class="cls-1" d="M201.68,20.22v10.2h-3.31v9.2h-11.5V15q0-7.14,3.89-11.09t11-3.95q6.79,0,10,3.58T215,14.64v25h-11.5V15.41a6.51,6.51,0,0,0-.54-3.15,2.08,2.08,0,0,0-1.92-.88c-1.8,0-2.69,1.35-2.69,4v4.81Z"/><path class="cls-1" d="M224.76,39.62V14.53q0-6.6,4-10.57t10.52-4q6.54,0,10,3.85t3.47,11.07v24.7h-11.5V14.92q0-3.54-2.52-3.54t-2.43,3.54v24.7Z"/><path class="cls-1" d="M292.33,1,281.4,18.15V39.62H269.9V18.15L258.88,1h11.67l5,8,5.36-8Z"/></g></g></svg>