<svg xmlns="http://www.w3.org/2000/svg" viewBox="0 0 228.33 40.58"><defs><style>.cls-1{fill:#fff;}</style></defs><title>PROFILE_hedder</title><g id="レイヤー_2" data-name="レイヤー 2"><g id="レイヤー_1-2" data-name="レイヤー 1"><path class="cls-1" d="M13.37,26.25V16.11c2.32,0,3.48-.88,3.48-2.66,0-1.62-.89-2.43-2.66-2.43s-2.69,1.11-2.69,3.34V39.62H0V15.55A20.89,20.89,0,0,1,.75,9.42,12.2,12.2,0,0,1,3.31,5a14.43,14.43,0,0,1,5.1-3.63A15.66,15.66,0,0,1,14.73,0a13.52,13.52,0,0,1,9.89,4,13.26,13.26,0,0,1,4,9.83A12.39,12.39,0,0,1,25,23q-3.3,3.27-9.92,3.26Z"/><path class="cls-1" d="M49.28,11.36V39.62H37.79V1H52.54Q59.28,1,63,4.3a12.24,12.24,0,0,1,4.14,9.49A12.15,12.15,0,0,1,62,23.68l6.63,15.94H56.56L51,27.16V17.22h.91c2.42,0,3.62-1,3.62-3.12,0-1.83-1.39-2.74-4.19-2.74Z"/><path class="cls-1" d="M97.11,0A19,19,0,0,1,111.2,6a19.66,19.66,0,0,1,5.88,14.3,19.59,19.59,0,0,1-5.92,14.38,20.39,20.39,0,0,1-28.75,0,19.6,19.6,0,0,1-5.94-14.36,19.39,19.39,0,0,1,6-14.39A20.07,20.07,0,0,1,97.11,0Zm-.34,11.38a8,8,0,0,0-6,2.61,8.77,8.77,0,0,0-2.49,6.29,8.72,8.72,0,0,0,2.5,6.28,8.3,8.3,0,0,0,12.07,0,8.8,8.8,0,0,0,2.48-6.3,8.76,8.76,0,0,0-2.48-6.3A8,8,0,0,0,96.77,11.38Z"/><path class="cls-1" d="M141.5,19.17V29.54h-3.82V39.62h-11.5v-24a15.67,15.67,0,0,1,4.18-11.2A13.85,13.85,0,0,1,140.88,0q7,0,11.7,6l-9.44,6.88a2.85,2.85,0,0,0-2.8-2.2c-1.77,0-2.66,1.22-2.66,3.68v4.78Z"/><path class="cls-1" d="M171.31,1V39.62H159.82V1Z"/><path class="cls-1" d="M181.34,1h11.5v23c0,1.79.29,3,.86,3.58s1.72.9,3.42.9h.59V39.62h-3.06q-6.28,0-9.8-3.67t-3.51-10.18Z"/><path class="cls-1" d="M227.6,16v8.61h-7.51a3.86,3.86,0,0,0-2.16.45,1.75,1.75,0,0,0-.64,1.53,1.71,1.71,0,0,0,.65,1.6,5.94,5.94,0,0,0,2.66.39h7.73v11h-9q-6.37,0-9.74-3t-3.37-8.8V12.63q0-5.55,3.18-8.61t9-3.06h10v11.1H221c-2,0-3,.65-3,1.93a1.69,1.69,0,0,0,.7,1.57,5.21,5.21,0,0,0,2.52.44Z"/></g></g></svg>