<svg xmlns="http://www.w3.org/2000/svg" viewBox="0 0 1143.64 63.99"><defs><style>.cls-1{fill:#f03;}.cls-2{fill:#f90;}.cls-3{fill:#0c0;}.cls-4{fill:#630;}</style></defs><title>PROFILE</title><g id="レイヤー_2" data-name="レイヤー 2"><g id="レイヤー_1-2" data-name="レイヤー 1"><circle class="cls-1" cx="31" cy="32.75" r="31"/><rect class="cls-2" x="121.42" y="0.75" width="63" height="63"/><polygon class="cls-3" points="280.5 0.25 243.84 63.75 317.16 63.75 280.5 0.25"/><circle class="cls-1" cx="1112.64" cy="32.99" r="31"/><rect class="cls-2" x="959.52" y="0.5" width="63" height="63" transform="translate(1982.04 64) rotate(-180)"/><polygon class="cls-3" points="863.44 0 900.1 63.5 826.78 63.5 863.44 0"/><path class="cls-4" d="M406.34,41.11V25.61q5.32,0,5.33-4.07,0-3.72-4.07-3.72t-4.12,5.11V61.54H385.91V24.74a31.8,31.8,0,0,1,1.15-9.37A18.91,18.91,0,0,1,391,8.55,22.15,22.15,0,0,1,398.77,3a24,24,0,0,1,9.65-2A20.67,20.67,0,0,1,423.55,7a20.31,20.31,0,0,1,6.13,15q0,8.7-5.5,14.11-5,5-15.15,5Z"/><path class="cls-4" d="M465.61,18.34v43.2H448V2.45h22.56q10.29,0,16,5.11a18.7,18.7,0,0,1,6.32,14.5q0,9-7.84,15.11l10.13,24.37H476.73l-8.53-19V27.3h1.39q5.54,0,5.54-4.76,0-4.2-6.41-4.2Z"/><path class="cls-4" d="M540.15,1a29.14,29.14,0,0,1,21.54,9.13,30.08,30.08,0,0,1,9,21.86,29.94,29.94,0,0,1-9,22,31.16,31.16,0,0,1-43.94,0,29.9,29.9,0,0,1-9.09-22,29.67,29.67,0,0,1,9.16-22A30.73,30.73,0,0,1,540.15,1Zm-.52,17.4a12.3,12.3,0,0,0-9.22,4A13.41,13.41,0,0,0,526.6,32a13.35,13.35,0,0,0,3.83,9.61,12.68,12.68,0,0,0,18.44,0A13.41,13.41,0,0,0,552.66,32a13.4,13.4,0,0,0-3.79-9.63A12.28,12.28,0,0,0,539.63,18.38Z"/><path class="cls-4" d="M612.23,30.29V46.13h-5.84V61.54H588.81V24.87q0-10.33,6.38-17.12A21.19,21.19,0,0,1,611.28,1Q622,1,629.16,10.2L614.74,20.72q-1.22-3.37-4.29-3.38-4.07,0-4.06,5.63v7.32Z"/><path class="cls-4" d="M661.36,2.45V61.54H643.79V2.45Z"/><path class="cls-4" d="M683.05,2.45h17.58V37.56c0,2.74.44,4.57,1.32,5.47s2.62,1.37,5.22,1.37h.9V61.54H703.4q-9.61,0-15-5.6t-5.37-15.57Z"/><path class="cls-4" d="M756.6,25.44V38.6H745.13a5.93,5.93,0,0,0-3.31.69,2.67,2.67,0,0,0-1,2.34,2.61,2.61,0,0,0,1,2.44,9.23,9.23,0,0,0,4.07.59h11.82V61.54H743.92q-9.74,0-14.89-4.65t-5.15-13.44V20.29q0-8.49,4.87-13.16t13.7-4.68h15.28v17H746.52q-4.54,0-4.55,2.94a2.61,2.61,0,0,0,1.08,2.41,8,8,0,0,0,3.86.67Z"/></g></g></svg>