<svg xmlns="http://www.w3.org/2000/svg" viewBox="0 0 1298.64 80.61"><defs><style>.cls-1{fill:#630;}.cls-2{fill:#f03;}.cls-3{fill:#f90;}.cls-4{fill:#0c0;}</style></defs><title>Representative</title><g id="レイヤー_2" data-name="レイヤー 2"><g id="レイヤー_1-2" data-name="レイヤー 1"><path class="cls-1" d="M375,19.76V64.19H356.94V3.43h23.19q10.59,0,16.42,5.25a19.22,19.22,0,0,1,6.5,14.91q0,9.21-8.06,15.54l10.42,25.06h-19L377.68,44.6V29h1.42q5.7,0,5.7-4.9,0-4.32-6.59-4.32Z"/><path class="cls-1" d="M453.84,44.69H428.6a12.2,12.2,0,0,1-.58-3.52,12.33,12.33,0,0,1,.8-4.36h8.46q-.89-4.94-5.56-4.94a6,6,0,0,0-5.07,2.65,11.12,11.12,0,0,0-2,6.79,11.83,11.83,0,0,0,1.89,7,5.82,5.82,0,0,0,5,2.67,6.63,6.63,0,0,0,4.81-2.49l9.48,11.4a23.29,23.29,0,0,1-14.73,5.21,22.71,22.71,0,0,1-16.6-6.63A22.15,22.15,0,0,1,407.77,42a22.28,22.28,0,0,1,6.79-16.47,22.78,22.78,0,0,1,16.67-6.72A22.42,22.42,0,0,1,454,41.57Q454,42.55,453.84,44.69Z"/><path class="cls-1" d="M476.41,80.61H459.76v-37q0-10.19,5.34-16.6a21.86,21.86,0,0,1,7.81-5.87,23.76,23.76,0,0,1,26.46,4.5A22,22,0,0,1,506.19,42a22.4,22.4,0,0,1-6.77,16.29,21.76,21.76,0,0,1-16,6.85q-1.51,0-4.45-.31V46.47a6.54,6.54,0,0,0,4.1,1.65,5.94,5.94,0,0,0,4.43-1.91,6.32,6.32,0,0,0,1.85-4.54,6,6,0,0,0-1.91-4.47,6.37,6.37,0,0,0-4.58-1.85q-6.41,0-6.41,8.86Z"/><path class="cls-1" d="M537.84,19.36v17.8a6.55,6.55,0,0,0-3.16-1q-4.54,0-4.54,6.94V64.19H513.49V39.93q0-9.61,5.25-15.33t14-5.72A34.13,34.13,0,0,1,537.84,19.36Z"/><path class="cls-1" d="M586.35,44.69H561.12a12.2,12.2,0,0,1-.58-3.52,12.33,12.33,0,0,1,.8-4.36h8.46q-.89-4.94-5.56-4.94a6,6,0,0,0-5.07,2.65,11.12,11.12,0,0,0-2,6.79,11.83,11.83,0,0,0,1.89,7,5.82,5.82,0,0,0,5,2.67,6.63,6.63,0,0,0,4.81-2.49l9.48,11.4a23.29,23.29,0,0,1-14.73,5.21A22.71,22.71,0,0,1,547,58.44,22.15,22.15,0,0,1,540.28,42a22.28,22.28,0,0,1,6.79-16.47,22.78,22.78,0,0,1,16.67-6.72,22.42,22.42,0,0,1,22.79,22.75Q586.53,42.55,586.35,44.69Z"/><path class="cls-1" d="M621.07,20.43V38q-3.52,0-4.83,1.31t-1.67,5.19q-1.16,12.86-10,18.16-4.67,2.76-13.26,2.76H589V47.76h.76q4,0,5.72-1.67t2-5.85a41.35,41.35,0,0,1,1.27-9.57,13.9,13.9,0,0,1,3.72-5.47q4.9-4.76,13.58-4.76Z"/><path class="cls-1" d="M670.12,44.69H644.89a12.2,12.2,0,0,1-.58-3.52,12.33,12.33,0,0,1,.8-4.36h8.46q-.89-4.94-5.56-4.94a6,6,0,0,0-5.07,2.65,11.12,11.12,0,0,0-2,6.79,11.83,11.83,0,0,0,1.89,7,5.82,5.82,0,0,0,5,2.67,6.63,6.63,0,0,0,4.81-2.49l9.48,11.4a23.29,23.29,0,0,1-14.73,5.21,22.71,22.71,0,0,1-16.6-6.63A22.15,22.15,0,0,1,624.05,42a22.28,22.28,0,0,1,6.79-16.47,22.78,22.78,0,0,1,16.67-6.72A22.42,22.42,0,0,1,670.3,41.57Q670.3,42.55,670.12,44.69Z"/><path class="cls-1" d="M716.59,64.19H699.95V39.13q0-3.83-3.16-3.83t-3.12,3.83V64.19H677V39.44a20.23,20.23,0,0,1,5.74-14.62,20,20,0,0,1,29.33,1q4.5,5.39,4.5,15Z"/><path class="cls-1" d="M741.12,3.43v17h7.48V38h-7.48q0,5.3,1.67,7.3t6.12,2V64.81l-1.91,0a22.61,22.61,0,0,1-10.66-2.63,21.57,21.57,0,0,1-8-7.12q-3.83-5.74-3.83-15.22V3.43Z"/><path class="cls-1" d="M781.45,47.54V64.76a22.08,22.08,0,0,1-3.74.36A22.81,22.81,0,0,1,761,58.53,22.24,22.24,0,0,1,754.34,42a23,23,0,0,1,23.15-23.1q10.77,0,17,6.3t6.21,17.2V64.19H784V43.62A8.58,8.58,0,0,0,782.31,38a5.65,5.65,0,0,0-4.61-2.09,6.54,6.54,0,0,0-6.45,6.45A6.23,6.23,0,0,0,773,46.92a5.89,5.89,0,0,0,4.41,1.78A7.55,7.55,0,0,0,781.45,47.54Z"/><path class="cls-1" d="M825.2,3.43v17h7.48V38H825.2q0,5.3,1.67,7.3t6.12,2V64.81l-1.91,0a22.61,22.61,0,0,1-10.66-2.63,21.57,21.57,0,0,1-8-7.12q-3.83-5.74-3.83-15.22V3.43Z"/><path class="cls-1" d="M857.52,19.81V64.19H840.87V19.81ZM849.24,0a8.15,8.15,0,0,1,5.85,2.38A7.57,7.57,0,0,1,857.56,8a7.53,7.53,0,0,1-2.34,5.7,9.17,9.17,0,0,1-12,0A7.52,7.52,0,0,1,840.91,8a7.57,7.57,0,0,1,2.47-5.63A8.15,8.15,0,0,1,849.24,0Z"/><path class="cls-1" d="M900.65,19.81,879.91,65.92,859.43,19.81h15.89l4.72,12,5.16-12Z"/><path class="cls-1" d="M946,44.69H920.81a12.2,12.2,0,0,1-.58-3.52,12.33,12.33,0,0,1,.8-4.36h8.46q-.89-4.94-5.56-4.94a6,6,0,0,0-5.07,2.65,11.12,11.12,0,0,0-2,6.79,11.83,11.83,0,0,0,1.89,7,5.82,5.82,0,0,0,5,2.67,6.63,6.63,0,0,0,4.81-2.49L938,59.87a23.29,23.29,0,0,1-14.73,5.21,22.71,22.71,0,0,1-16.6-6.63A22.15,22.15,0,0,1,900,42a22.28,22.28,0,0,1,6.79-16.47,22.78,22.78,0,0,1,16.67-6.72,22.42,22.42,0,0,1,22.79,22.75Q946.23,42.55,946,44.69Z"/><circle class="cls-2" cx="31" cy="38.34" r="31"/><rect class="cls-3" x="121.42" y="6.34" width="63" height="63"/><polygon class="cls-4" points="280.5 5.84 243.84 69.34 317.16 69.34 280.5 5.84"/><circle class="cls-2" cx="1267.64" cy="38.59" r="31"/><rect class="cls-3" x="1114.52" y="6.09" width="63" height="63" transform="translate(2292.04 75.19) rotate(-180)"/><polygon class="cls-4" points="1018.44 5.59 1055.1 69.09 981.78 69.09 1018.44 5.59"/></g></g></svg>