<svg xmlns="http://www.w3.org/2000/svg" viewBox="0 0 115.44 40.58"><defs><style>.cls-1{fill:#fff;}</style></defs><title>TOP_hedder</title><g id="レイヤー_2" data-name="レイヤー 2"><g id="レイヤー_1-2" data-name="レイヤー 1"><path class="cls-1" d="M20.31,12.06V39.62H8.81V12.06H0V1H29.08v11.1Z"/><path class="cls-1" d="M57.74,0A19,19,0,0,1,71.82,6a19.66,19.66,0,0,1,5.88,14.3,19.55,19.55,0,0,1-5.92,14.38A19.55,19.55,0,0,1,57.4,40.58,19.57,19.57,0,0,1,43,34.64a19.57,19.57,0,0,1-5.95-14.36,19.42,19.42,0,0,1,6-14.39A20.09,20.09,0,0,1,57.74,0ZM57.4,11.38a8,8,0,0,0-6,2.61,8.77,8.77,0,0,0-2.49,6.29,8.73,8.73,0,0,0,2.51,6.28,8.29,8.29,0,0,0,12.06,0,8.8,8.8,0,0,0,2.48-6.3A8.76,8.76,0,0,0,63.44,14,8,8,0,0,0,57.4,11.38Z"/><path class="cls-1" d="M100.17,26.25V16.11c2.32,0,3.48-.88,3.48-2.66,0-1.62-.88-2.43-2.66-2.43s-2.69,1.11-2.69,3.34V39.62H86.8V15.55a20.89,20.89,0,0,1,.75-6.13A12.23,12.23,0,0,1,90.12,5a14.48,14.48,0,0,1,5.09-3.63A15.66,15.66,0,0,1,101.53,0a13.53,13.53,0,0,1,9.9,4,13.29,13.29,0,0,1,4,9.83,12.36,12.36,0,0,1-3.6,9.23q-3.28,3.27-9.91,3.26Z"/></g></g></svg>