<svg xmlns="http://www.w3.org/2000/svg" viewBox="0 0 200.76 52.15"><defs><style>.cls-1{fill:#fff;}</style></defs><title>tsukuriba_hedder_logo</title><g id="レイヤー_2" data-name="レイヤー 2"><g id="レイヤー_1-2" data-name="レイヤー 1"><polygon class="cls-1" points="0 0 0 14.91 63.94 14.91 63.94 37.1 30.48 37.1 30.48 52.01 78.85 52.01 78.85 0 0 0"/><polygon class="cls-1" points="93.36 37.03 118.08 51.31 118.08 22.76 93.36 37.03"/><rect class="cls-1" x="132.59" y="22.86" width="6.63" height="14.25"/><rect class="cls-1" x="146.83" y="22.86" width="6.63" height="28.82"/><rect class="cls-1" x="167.97" y="22.86" width="6.63" height="22.2"/><rect class="cls-1" x="184.86" y="22.86" width="6.63" height="21.87"/><rect class="cls-1" x="191.16" y="24.52" width="6.63" height="3.31" transform="translate(220.64 -168.3) rotate(90)"/><rect class="cls-1" x="195.79" y="24.52" width="6.63" height="3.31" transform="translate(225.28 -172.93) rotate(90)"/><path class="cls-1" d="M182.87,46.71V39.58a6.29,6.29,0,1,0,6.6,7.13Z"/></g></g></svg>