<svg xmlns="http://www.w3.org/2000/svg" viewBox="0 0 607.3 368.15"><defs><style>.cls-1{fill:#f03;}.cls-2{fill:#0c0;}.cls-3{fill:#f90;}.cls-4{fill:#00a3e8;}.cls-5{fill:#630;}.cls-6{fill:#fff;}</style></defs><title>tsukuriba_logo_1</title><g id="レイヤー_2" data-name="レイヤー 2"><g id="レイヤー_1-2" data-name="レイヤー 1"><polygon class="cls-1" points="0 85.59 0 130.59 193 130.59 193 197.59 92 197.59 92 242.59 238 242.59 238 85.59 0 85.59"/><polygon class="cls-2" points="281.79 197.38 356.42 240.47 356.42 154.29 281.79 197.38"/><rect class="cls-3" x="400.21" y="154.59" width="20" height="43"/><rect class="cls-3" x="443.21" y="154.59" width="20" height="87"/><rect class="cls-4" x="507" y="154.59" width="20" height="67"/><rect class="cls-4" x="558" y="154.59" width="20" height="66"/><rect class="cls-4" x="577" y="159.59" width="20" height="10" transform="translate(751.59 -422.41) rotate(90)"/><rect class="cls-4" x="591" y="159.59" width="20" height="10" transform="translate(765.59 -436.41) rotate(90)"/><path class="cls-4" d="M552,226.59V205.07a19,19,0,1,0,19.91,21.52Z"/><rect class="cls-5" x="1.3" y="283.18" width="606" height="45"/><path class="cls-6" d="M163,302.59v16h-8v-16h-7v-6h20v6Z"/><path class="cls-6" d="M210,295.59V309.9a7.52,7.52,0,0,1-2.69,6.05,10.71,10.71,0,0,1-7.15,2.26q-4.44,0-6.8-2.2a8.21,8.21,0,0,1-2.36-6.32v-14.1h8V310c-.27,1.35.31,2,1.47,2s1.67-.67,1.53-2V295.59Z"/><path class="cls-6" d="M243,295.59v22h-8v-22Zm14.87,0-7,10,6.95,12H249l-6-12.15,6.79-9.85Z"/><path class="cls-6" d="M299,295.59V309.9a7.52,7.52,0,0,1-2.69,6.05,10.71,10.71,0,0,1-7.15,2.26q-4.44,0-6.8-2.2a8.21,8.21,0,0,1-2.36-6.32v-14.1h8V310c-.15,1.35.43,2,1.59,2s1.67-.67,1.41-2V295.59Z"/><path class="cls-6" d="M332,301.59v16h-8v-22h10.06c3.07,0,5.44.63,7.13,1.9a6.5,6.5,0,0,1,2.82,5.4c0,2.22-1.17,4.1-3.5,5.62l4.52,9.08H336.8L333,310.5v-5.91h.63c1.66.63,2.49,0,2.49-1.15s-1-1.57-2.88-1.85Z"/><path class="cls-6" d="M376,295.59v22h-8v-22Z"/><path class="cls-6" d="M401,295.59h9.5q8.44,0,8.44,5.59a5.37,5.37,0,0,1-2.89,4.61q4.2,1.53,4.2,5.46a5.67,5.67,0,0,1-2.47,4.81,7.7,7.7,0,0,1-2.59,1.19,16.57,16.57,0,0,1-3.72.34H410v-5h1.22a3.69,3.69,0,0,0,1.53-.23.83.83,0,0,0,.44-.8c0-.65-.6-1-1.81-1H410v-6.34s2.25-.42,2.25-1.25-.65-1.15-2-1.41H409v16h-8Z"/><path class="cls-6" d="M453,306.59v6h-2v5h-8v-14a7.89,7.89,0,0,1,2.63-6.33Q448.26,295,453,295c3.05,0,5.32.68,6.78,2.05s2.2,3.47,2.2,6.31v14.27h-7V304.18c-.46-.86-.58-1.46-.83-1.79a1.55,1.55,0,0,0-1.32-.5c-1.23,0-1.85,2.29-1.85,2.29v2.41Z"/><rect class="cls-5" x="1.3" width="606" height="45"/><path d="M238.32,354.31h-4.43v13.6h-1.63v-13.6h-4.41v-1.38h10.47Z"/><path d="M247.38,358.82a3.82,3.82,0,0,0-2.09-.63,1.62,1.62,0,0,0-1.81,1.59c0,.93.61,1.36,2,2,1.73.71,2.73,1.62,2.73,3.23,0,1.91-1.45,3.17-3.79,3.17a5.72,5.72,0,0,1-2.82-.73l.45-1.26a5,5,0,0,0,2.42.73c1.44,0,2.15-.77,2.15-1.73s-.57-1.56-2-2.13c-1.81-.73-2.73-1.73-2.73-3,0-1.67,1.33-3.05,3.5-3.05a4.7,4.7,0,0,1,2.46.65Z"/><path d="M261.57,365.06c0,1.1.06,2,.1,2.85h-1.48l-.08-1.69h-.05a3.92,3.92,0,0,1-3.43,1.93c-1.61,0-3.52-.93-3.52-4.63v-6.34h1.63v6.05c0,2.08.61,3.54,2.4,3.54a2.84,2.84,0,0,0,2.8-2.91v-6.68h1.63Z"/><path d="M275.59,367.91h-2l-3.7-5.29-1,1.12v4.17h-1.64V352.16h1.64v10h0c.26-.37.63-.84.93-1.2l3.21-3.8h2l-4,4.43Z"/><path d="M287.91,365.06c0,1.1.06,2,.1,2.85h-1.48l-.08-1.69h-.05a3.92,3.92,0,0,1-3.43,1.93c-1.61,0-3.52-.93-3.52-4.63v-6.34h1.63v6.05c0,2.08.61,3.54,2.4,3.54a2.84,2.84,0,0,0,2.8-2.91v-6.68h1.63Z"/><path d="M298.5,358.56a4.69,4.69,0,0,0-.59,0c-1.77,0-2.67,1.75-2.67,3.57v5.82H293.6v-7.52c0-1.14,0-2.18-.08-3.21H295l.08,2.07h.06A3.2,3.2,0,0,1,298,357a3.86,3.86,0,0,1,.49.06Z"/><path d="M303.68,355.29a1.06,1.06,0,0,1-1.06-1.12,1.07,1.07,0,0,1,1.08-1.1,1.11,1.11,0,0,1,0,2.22Zm.83,12.62h-1.64V357.18h1.64Z"/><path d="M311.89,358.92a3.82,3.82,0,0,1,3.56-2c2.54,0,4.33,2.18,4.33,5.49,0,3.9-2.38,5.73-4.6,5.73a3.67,3.67,0,0,1-3.47-2h-.06l-.1,1.77h-1.41c0-.71.08-1.79.08-2.66V352.16h1.63v6.76Zm0,4.8a3,3,0,0,0,3,3.09c2.09,0,3.25-1.79,3.25-4.33,0-2.25-1.1-4.21-3.19-4.21a3.25,3.25,0,0,0-3.07,3.32Z"/><path d="M331.73,365.35a14.78,14.78,0,0,0,.16,2.56h-1.5l-.15-1.38h-.06a3.73,3.73,0,0,1-3.17,1.62,3,3,0,0,1-3.13-3c0-2.58,2.24-4,6.22-4,0-.91,0-2.95-2.44-2.95A4.58,4.58,0,0,0,325,359l-.39-1.13a6.07,6.07,0,0,1,3.26-.9c3,0,3.82,2.14,3.82,4.27Zm-1.61-3c-2,0-4.57.3-4.57,2.56a1.79,1.79,0,0,0,1.85,2,2.62,2.62,0,0,0,2.72-2.52Z"/><path d="M344.45,352.91h1.63v15h-1.63Z"/><path d="M360.43,367.91H358.8v-6.34c0-1.75-.63-3.28-2.5-3.28a2.92,2.92,0,0,0-2.81,3v6.57h-1.64v-8c0-1.1,0-1.91-.08-2.78h1.46l.1,1.76h0a3.81,3.81,0,0,1,3.44-2c1.34,0,3.62.8,3.62,4.45Z"/><path d="M373.31,367.52a7,7,0,0,1-2.91.61c-3.07,0-5.1-2.19-5.1-5.47s2.18-5.73,5.49-5.73a5.9,5.9,0,0,1,2.58.57l-.42,1.32a4.29,4.29,0,0,0-2.2-.55c-2.48,0-3.78,2-3.78,4.29,0,2.6,1.56,4.23,3.72,4.23a5.46,5.46,0,0,0,2.32-.53Z"/><path d="M377.6,366.91a1.18,1.18,0,0,1,1.18-1.28,1.17,1.17,0,0,1,1.16,1.28,1.17,1.17,0,1,1-2.34,0Z"/></g></g></svg>