<svg xmlns="http://www.w3.org/2000/svg" viewBox="0 0 607.3 374.59"><defs><style>.cls-1{fill:#f03;}.cls-2{fill:#0c0;}.cls-3{fill:#f90;}.cls-4{fill:#00a3e8;}.cls-5{fill:#630;}.cls-6{fill:#fff;}.cls-7{font-size:19.69px;font-family:KozGoPr6N-Regular-90ms-RKSJ-H, Kozuka Gothic Pr6N;letter-spacing:0.13em;}</style></defs><title>tsukuliba_logo_inc</title><g id="レイヤー_2" data-name="レイヤー 2"><g id="レイヤー_1-2" data-name="レイヤー 1"><polygon class="cls-1" points="0 85.59 0 130.59 193 130.59 193 197.59 92 197.59 92 242.59 238 242.59 238 85.59 0 85.59"/><polygon class="cls-2" points="281.79 197.38 356.42 240.47 356.42 154.29 281.79 197.38"/><rect class="cls-3" x="400.21" y="154.59" width="20" height="43"/><rect class="cls-3" x="443.21" y="154.59" width="20" height="87"/><rect class="cls-4" x="507" y="154.59" width="20" height="67"/><rect class="cls-4" x="558" y="154.59" width="20" height="66"/><rect class="cls-4" x="577" y="159.59" width="20" height="10" transform="translate(751.59 -422.41) rotate(90)"/><rect class="cls-4" x="591" y="159.59" width="20" height="10" transform="translate(765.59 -436.41) rotate(90)"/><path class="cls-4" d="M552,226.59V205.07a19,19,0,1,0,19.91,21.52Z"/><rect class="cls-5" x="1.3" y="283.18" width="606" height="45"/><path class="cls-6" d="M163,302.59v16h-8v-16h-7v-6h20v6Z"/><path class="cls-6" d="M210,295.59V309.9a7.52,7.52,0,0,1-2.69,6.05,10.71,10.71,0,0,1-7.15,2.26q-4.44,0-6.8-2.2a8.21,8.21,0,0,1-2.36-6.32v-14.1h8V310c-.27,1.35.31,2,1.47,2s1.67-.67,1.53-2V295.59Z"/><path class="cls-6" d="M243,295.59v22h-8v-22Zm14.87,0-7,10,6.95,12H249l-6-12.15,6.79-9.85Z"/><path class="cls-6" d="M299,295.59V309.9a7.52,7.52,0,0,1-2.69,6.05,10.71,10.71,0,0,1-7.15,2.26q-4.44,0-6.8-2.2a8.21,8.21,0,0,1-2.36-6.32v-14.1h8V310c-.15,1.35.43,2,1.59,2s1.67-.67,1.41-2V295.59Z"/><path class="cls-6" d="M332,301.59v16h-8v-22h10.06c3.07,0,5.44.63,7.13,1.9a6.5,6.5,0,0,1,2.82,5.4c0,2.22-1.17,4.1-3.5,5.62l4.52,9.08H336.8L333,310.5v-5.91h.63c1.66.63,2.49,0,2.49-1.15s-1-1.57-2.88-1.85Z"/><path class="cls-6" d="M376,295.59v22h-8v-22Z"/><path class="cls-6" d="M401,295.59h9.5q8.44,0,8.44,5.59a5.37,5.37,0,0,1-2.89,4.61q4.2,1.53,4.2,5.46a5.67,5.67,0,0,1-2.47,4.81,7.7,7.7,0,0,1-2.59,1.19,16.57,16.57,0,0,1-3.72.34H410v-5h1.22a3.69,3.69,0,0,0,1.53-.23.83.83,0,0,0,.44-.8c0-.65-.6-1-1.81-1H410v-6.34s2.25-.42,2.25-1.25-.65-1.15-2-1.41H409v16h-8Z"/><path class="cls-6" d="M453,306.59v6h-2v5h-8v-14a7.89,7.89,0,0,1,2.63-6.33Q448.26,295,453,295c3.05,0,5.32.68,6.78,2.05s2.2,3.47,2.2,6.31v14.27h-7V304.18c-.46-.86-.58-1.46-.83-1.79a1.55,1.55,0,0,0-1.32-.5c-1.23,0-1.85,2.29-1.85,2.29v2.41Z"/><rect class="cls-5" x="1.3" width="606" height="45"/><text class="cls-7" transform="translate(227.87 367.91)">Tsukuriba Inc.</text></g></g></svg>