<svg xmlns="http://www.w3.org/2000/svg" viewBox="0 0 201.33 40.58"><defs><style>.cls-1{fill:#fff;}</style></defs><title>WORKS_hedder</title><g id="レイヤー_2" data-name="レイヤー 2"><g id="レイヤー_1-2" data-name="レイヤー 1"><path class="cls-1" d="M40.92,1V28.8a11.76,11.76,0,0,1-3.14,8.5,10.76,10.76,0,0,1-8.13,3.28,10,10,0,0,1-9.17-5.46,12.78,12.78,0,0,1-4.2,4.2,11.1,11.1,0,0,1-5.52,1.26q-5.2,0-8-3.28T0,27.84V1H11.5V26.11a6.5,6.5,0,0,0,.3,2.47,1.2,1.2,0,0,0,1.2.59c1.13,0,1.7-1,1.7-2.86V1H26.2V26.11a6.26,6.26,0,0,0,.31,2.44,1.24,1.24,0,0,0,1.22.62c1.13,0,1.69-1,1.69-3.06V1Z"/><path class="cls-1" d="M70.68,0A19.05,19.05,0,0,1,84.77,6a19.65,19.65,0,0,1,5.87,14.3,19.58,19.58,0,0,1-5.91,14.38,20.39,20.39,0,0,1-28.75,0A19.61,19.61,0,0,1,50,20.28,19.42,19.42,0,0,1,56,5.89,20.11,20.11,0,0,1,70.68,0Zm-.34,11.38a8,8,0,0,0-6,2.61,8.74,8.74,0,0,0-2.5,6.29,8.73,8.73,0,0,0,2.51,6.28,8.29,8.29,0,0,0,12.06,0,8.76,8.76,0,0,0,2.48-6.3A8.72,8.72,0,0,0,76.38,14,8,8,0,0,0,70.34,11.38Z"/><path class="cls-1" d="M111.55,11.36V39.62h-11.5V1h14.76q6.73,0,10.45,3.34a12.27,12.27,0,0,1,4.13,9.49,12.17,12.17,0,0,1-5.12,9.89l6.62,15.94H118.83l-5.58-12.46V17.22h.91q3.61,0,3.62-3.12,0-2.74-4.19-2.74Z"/><path class="cls-1" d="M151.16,1V39.62h-11.5V1Zm22.06,0L163,18.49l10.14,21.13H160.25L151.5,18.27,161.41,1Z"/><path class="cls-1" d="M201.33.79v11a6.62,6.62,0,0,0-1.93-.43,3,3,0,0,0-2.23,1,3.18,3.18,0,0,0-.94,2.32,6.38,6.38,0,0,0,1,3l.88,1.52a16,16,0,0,1,2.38,8,12.81,12.81,0,0,1-4,9.54,13.46,13.46,0,0,1-9.78,3.91,12.87,12.87,0,0,1-5.5-1.27V28.12a5.63,5.63,0,0,0,2.92,1.05,3.75,3.75,0,0,0,2.51-.86,2.74,2.74,0,0,0,1-2.17A11.12,11.12,0,0,0,186,22.43a18.17,18.17,0,0,1-2.58-9.06A13,13,0,0,1,187.35,4,12.64,12.64,0,0,1,196.66,0,14.18,14.18,0,0,1,201.33.79Z"/></g></g></svg>