<svg xmlns="http://www.w3.org/2000/svg" viewBox="0 0 1184.3 64.99"><defs><style>.cls-1{fill:#630;}.cls-2{fill:#f03;}.cls-3{fill:#f90;}.cls-4{fill:#0c0;}</style></defs><title>WORKS</title><g id="レイヤー_2" data-name="レイヤー 2"><g id="レイヤー_1-2" data-name="レイヤー 1"><path class="cls-1" d="M471.06,2.31v43q0,8-4.85,13.12a16.6,16.6,0,0,1-12.55,5.07q-9.27,0-14.17-8.44a19.71,19.71,0,0,1-6.47,6.5,17.17,17.17,0,0,1-8.53,1.95q-8,0-12.33-5.07t-4.29-14.61V2.31h17.76V41.15a10.06,10.06,0,0,0,.46,3.8,1.87,1.87,0,0,0,1.86.92q2.62,0,2.62-4.42V2.31h17.76V41.15a9.67,9.67,0,0,0,.48,3.76,1.9,1.9,0,0,0,1.88,1q2.62,0,2.62-4.72V2.31Z"/><path class="cls-1" d="M531,.82a29.44,29.44,0,0,1,21.76,9.23,30.39,30.39,0,0,1,9.08,22.09,30.24,30.24,0,0,1-9.14,22.22,31.47,31.47,0,0,1-44.39,0,30.22,30.22,0,0,1-9.18-22.17,30,30,0,0,1,9.25-22.22A31.05,31.05,0,0,1,531,.82Zm-.52,17.58a12.41,12.41,0,0,0-9.32,4,13.54,13.54,0,0,0-3.85,9.71,13.5,13.5,0,0,0,3.87,9.71,12.82,12.82,0,0,0,18.63,0,13.56,13.56,0,0,0,3.83-9.73,13.56,13.56,0,0,0-3.83-9.73A12.43,12.43,0,0,0,530.46,18.41Z"/><path class="cls-1" d="M610.33,18.36V62H592.57V2.31h22.79q10.41,0,16.14,5.16a18.89,18.89,0,0,1,6.39,14.65q0,9.05-7.92,15.26L640.2,62H621.57l-8.62-19.24V27.42h1.4q5.6,0,5.6-4.81,0-4.24-6.47-4.24Z"/><path class="cls-1" d="M686.3,2.31V62H668.54V2.31Zm34.07,0L704.62,29.38,720.28,62H700.34L686.82,29,702.13,2.31Z"/><path class="cls-1" d="M776.74,2v17a10.06,10.06,0,0,0-3-.66,4.65,4.65,0,0,0-3.46,1.49,5,5,0,0,0-1.44,3.59A9.81,9.81,0,0,0,770.45,28l1.36,2.36a24.74,24.74,0,0,1,3.67,12.33,19.8,19.8,0,0,1-6.19,14.74,20.83,20.83,0,0,1-15.11,6,19.81,19.81,0,0,1-8.48-2V44.26a8.66,8.66,0,0,0,4.5,1.62,5.73,5.73,0,0,0,3.87-1.33,4.23,4.23,0,0,0,1.55-3.35q0-1.31-2.49-5.73a28.09,28.09,0,0,1-4-14,20,20,0,0,1,6-14.54A19.47,19.47,0,0,1,769.53.82,22,22,0,0,1,776.74,2Z"/><circle class="cls-2" cx="31" cy="32.5" r="31"/><rect class="cls-3" x="121.42" y="0.5" width="63" height="63"/><polygon class="cls-4" points="280.5 0 243.84 63.5 317.16 63.5 280.5 0"/><circle class="cls-2" cx="1153.3" cy="33.99" r="31"/><rect class="cls-3" x="1000.19" y="1.5" width="63" height="63" transform="translate(2063.37 66) rotate(-180)"/><polygon class="cls-4" points="904.1 1 940.77 64.5 867.44 64.5 904.1 1"/></g></g></svg>